<svg xmlns="http://www.w3.org/2000/svg" viewBox="0 0 175.61 162.99"><defs><style>.cls-1{fill:#fff;stroke:#fff;stroke-miterlimit:10;stroke-width:4px;}.cls-2{fill:#f7f7f7;}</style></defs><title>logo-315x247_1</title><g id="Layer_2" data-name="Layer 2"><g id="Layer_2-2" data-name="Layer 2"><path class="cls-1" d="M5.75,132.32h5.9l5.21,13.76c.65,1.79,1.24,3.68,1.89,5.52h.18c.65-1.84,1.21-3.73,1.86-5.52l5.09-13.76h5.91v28.15H27V147.59c0-2.6.41-6.34.67-9h-.18l-2.38,6.54-4.85,12.65H17.17L12.3,145.18,10,138.64H9.78c.25,2.61.67,6.35.67,9v12.88H5.75Z" transform="translate(-3.75)"/><path class="cls-1" d="M44.52,150l-8.86-17.68h5.59l3.2,7.2c.87,2.09,1.7,4,2.62,6.19h.18c.93-2.15,1.86-4.1,2.71-6.19l3.21-7.2h5.44L49.75,150v10.47H44.52Z" transform="translate(-3.75)"/><path class="cls-1" d="M71,132.32h17.8v4.2H76.22v8h10.7v4.2H76.22v11.76H71Z" transform="translate(-3.75)"/><path class="cls-1" d="M92.27,146.28c0-9.11,5.32-14.48,13-14.48s13,5.4,13,14.48-5.32,14.71-13,14.71S92.27,155.39,92.27,146.28Zm20.61,0c0-6.32-3-10.14-7.62-10.14s-7.62,3.82-7.62,10.14,3,10.37,7.62,10.37S112.88,152.6,112.88,146.28Z" transform="translate(-3.75)"/><path class="cls-1" d="M122.94,146.28c0-9.11,5.31-14.48,13-14.48s13,5.4,13,14.48S143.6,161,135.92,161,122.94,155.39,122.94,146.28Zm20.6,0c0-6.32-3-10.14-7.62-10.14s-7.62,3.82-7.62,10.14,3,10.37,7.62,10.37S143.54,152.6,143.54,146.28Z" transform="translate(-3.75)"/><path class="cls-1" d="M155.15,132.32H163c9,0,14.36,4.65,14.36,14s-5.33,14.19-14.09,14.19h-8.12Zm7.51,24.1c5.93,0,9.33-3.22,9.33-10.14s-3.4-9.91-9.33-9.91h-2.29v20Z" transform="translate(-3.75)"/><path class="cls-2" d="M152.51,40.62H29.35V40.2C29.35,18,57,0,90.93,0s61.58,18,61.58,40.2Z" transform="translate(-3.75)"/><path class="cls-2" d="M134.91,90.65c-7.7,4.66-7.21,16.52-7.21,16.66l.06,1-.77-.68a74.27,74.27,0,0,0-31.67-17H30.21v5.68a17.43,17.43,0,0,0,17.41,17.41h84a17.44,17.44,0,0,0,17.42-17.41V90.65Z" transform="translate(-3.75)"/><path class="cls-2" d="M147.38,63.71H81.52v6.85a9,9,0,1,1-18,0V68.84a7.27,7.27,0,0,1-13.68-3.42V63.71H34.49a9.84,9.84,0,1,0,0,19.67H83.73a89.2,89.2,0,0,1,39.85,18.29l.54.45.15-.68c0-.14,4.15-13.91,14.27-18.06h8.84a9.84,9.84,0,0,0,0-19.67Z" transform="translate(-3.75)"/><path class="cls-2" d="M150.8,45.33H31.07a6.84,6.84,0,1,0,0,13.68H52.45v7.27a3.87,3.87,0,0,0,7.74,0V59a3.84,3.84,0,0,1,7.65.43V73.5A5.55,5.55,0,0,0,78.1,70.56V59h72.7a6.84,6.84,0,0,0,0-13.68Z" transform="translate(-3.75)"/></g></g></svg>