<svg xmlns="http://www.w3.org/2000/svg" viewBox="0 0 50 50"><defs><style>.cls-1{fill:#191919;}.cls-2{fill:#f7f7f7;}</style></defs><title>logo-50x50</title><g id="Layer_2" data-name="Layer 2"><g id="Layer_2-2" data-name="Layer 2"><circle cx="25" cy="25" r="23.62"/><path class="cls-1" d="M25,48.89A23.89,23.89,0,1,1,48.89,25,23.92,23.92,0,0,1,25,48.89ZM25,1.65A23.35,23.35,0,1,0,48.35,25,23.38,23.38,0,0,0,25,1.65Z"/><path d="M25,50A25,25,0,1,1,50,25,25,25,0,0,1,25,50ZM25,.55A24.45,24.45,0,1,0,49.45,25,24.48,24.48,0,0,0,25,.55Z"/><path class="cls-2" d="M41.44,19.66H8.56v-.11C8.56,13.63,15.93,8.81,25,8.81s16.44,4.82,16.44,10.74Z"/><path class="cls-2" d="M36.74,33c-2.05,1.24-1.92,4.41-1.92,4.45v.27l-.2-.18A19.86,19.86,0,0,0,26.17,33H8.78v1.52a4.66,4.66,0,0,0,4.65,4.65H35.88a4.66,4.66,0,0,0,4.65-4.65V33Z"/><path class="cls-2" d="M40.07,25.83H22.49v1.82a2.4,2.4,0,0,1-4.8,0V27.2A1.94,1.94,0,0,1,14,26.28v-.45H9.93a2.63,2.63,0,1,0,0,5.25H23.08A23.82,23.82,0,0,1,33.72,36l.14.12,0-.18s1.11-3.71,3.81-4.82h2.36a2.63,2.63,0,1,0,0-5.25Z"/><path class="cls-2" d="M41,20.92H9a1.83,1.83,0,0,0,0,3.65h5.71v1.94a1,1,0,0,0,2.07,0V24.57a1,1,0,0,1,2,.12v3.75a1.48,1.48,0,0,0,2.74-.79V24.57H41a1.83,1.83,0,0,0,0-3.65Z"/></g></g></svg>